<?xml version="1.0" standalone="no"?>
<!DOCTYPE svg PUBLIC "-//W3C//DTD SVG 20010904//EN"
 "http://www.w3.org/TR/2001/REC-SVG-20010904/DTD/svg10.dtd">
<svg version="1.0" xmlns="http://www.w3.org/2000/svg"
 width="700.000000pt" height="700.000000pt" viewBox="0 0 700.000000 700.000000"
 preserveAspectRatio="xMidYMid meet">
<metadata>
Created by potrace 1.14, written by Peter Selinger 2001-2017
</metadata>
<g transform="translate(0.000000,700.000000) scale(0.100000,-0.100000)"
fill="#000000" stroke="none">
<path d="M6245 6990 c-2 -4 -18 -6 -35 -5 -16 1 -30 -3 -30 -9 0 -6 -5 -4 -10
4 -8 12 -10 12 -10 1 0 -8 -7 -11 -20 -8 -11 3 -20 2 -20 -2 0 -4 -6 -8 -12
-8 -18 -1 -55 -9 -103 -22 -22 -6 -43 -9 -46 -8 -3 1 -13 -4 -23 -12 -9 -8
-19 -11 -23 -8 -3 4 -12 2 -20 -4 -7 -6 -13 -8 -13 -4 0 4 -6 2 -14 -4 -8 -7
-22 -13 -32 -16 -25 -5 -118 -39 -124 -45 -3 -3 -12 -7 -20 -9 -45 -12 -80
-27 -80 -33 0 -5 -6 -8 -13 -8 -7 0 -37 -11 -65 -25 -29 -14 -56 -25 -62 -25
-5 0 -10 -4 -10 -10 0 -5 -7 -7 -15 -4 -8 4 -15 1 -15 -5 0 -6 -7 -11 -15 -11
-8 0 -15 -5 -15 -11 0 -5 -4 -7 -10 -4 -5 3 -10 1 -10 -4 0 -6 -3 -11 -7 -10
-17 2 -53 -14 -53 -24 0 -6 -3 -8 -6 -4 -3 3 -23 -4 -43 -17 -20 -13 -46 -26
-58 -30 -13 -4 -23 -12 -23 -18 0 -6 -3 -8 -6 -5 -4 4 -19 -2 -34 -13 -16 -11
-31 -20 -36 -20 -10 0 -64 -62 -64 -74 0 -6 -14 -38 -30 -71 -16 -33 -30 -67
-30 -76 0 -9 -6 -22 -14 -28 -8 -7 -18 -26 -21 -42 -4 -16 -11 -29 -17 -29 -6
0 -8 -3 -5 -6 3 -4 1 -16 -5 -28 -7 -11 -13 -23 -14 -26 -7 -27 -27 -70 -32
-70 -9 0 -32 50 -32 67 0 7 -4 13 -8 13 -5 0 -15 18 -22 40 -7 22 -21 47 -32
57 -21 19 -90 22 -96 5 -2 -7 -8 -10 -13 -6 -5 3 -9 1 -9 -5 0 -5 -8 -12 -17
-15 -10 -3 -29 -16 -43 -29 -14 -13 -41 -32 -60 -43 -19 -10 -37 -21 -40 -24
-13 -14 -171 -130 -176 -130 -3 0 -12 -6 -19 -12 -29 -27 -80 -66 -85 -65 -3
1 -19 -12 -37 -28 -50 -47 -60 -54 -67 -48 -3 4 -6 -2 -6 -12 0 -10 -3 -15 -6
-12 -5 5 -66 -40 -130 -98 -6 -5 -28 -23 -49 -40 -21 -16 -44 -36 -51 -42 -7
-7 -15 -13 -18 -13 -3 0 -21 -16 -41 -35 -19 -20 -35 -33 -35 -30 0 3 -18 -13
-40 -35 -22 -22 -40 -37 -40 -33 0 4 -8 -2 -19 -13 -10 -10 -51 -48 -91 -84
-40 -36 -88 -80 -106 -97 -19 -18 -34 -31 -34 -29 0 4 -168 -155 -294 -279
-50 -49 -94 -89 -98 -87 -5 1 -8 -2 -8 -8 0 -14 -57 -70 -64 -63 -3 4 -6 1 -6
-5 0 -17 -92 -108 -104 -104 -6 2 -8 0 -4 -4 5 -4 -10 -24 -31 -46 -22 -21
-37 -38 -33 -38 3 0 -9 -11 -28 -25 -19 -14 -31 -25 -28 -25 4 0 -10 -17 -30
-38 -20 -21 -71 -75 -112 -121 -41 -46 -94 -105 -117 -130 -24 -25 -43 -50
-43 -54 0 -5 -4 -5 -10 -2 -5 3 -10 0 -10 -7 0 -8 -17 -32 -38 -55 -20 -22
-51 -58 -69 -79 -17 -22 -39 -49 -50 -60 -10 -12 -31 -39 -48 -60 -16 -21 -37
-45 -45 -54 -9 -9 -31 -37 -49 -63 -19 -26 -37 -47 -40 -47 -4 0 -17 -18 -31
-40 -14 -22 -28 -40 -32 -40 -5 0 -8 -7 -8 -15 0 -8 -4 -15 -9 -15 -4 0 -21
-19 -37 -42 -16 -24 -36 -48 -44 -55 -8 -7 -11 -13 -6 -13 4 0 -2 -9 -15 -20
-13 -10 -20 -19 -16 -20 8 0 -1 -12 -33 -48 -9 -9 -33 -43 -55 -74 -21 -32
-42 -58 -46 -58 -4 0 -12 -12 -18 -27 -6 -16 -31 -55 -55 -88 -25 -33 -45 -65
-45 -72 -1 -6 -5 -13 -9 -15 -4 -1 -40 -55 -80 -118 -39 -63 -75 -119 -79
-125 -12 -15 -14 -75 -3 -75 5 0 10 -6 10 -12 0 -14 54 -48 76 -48 8 0 14 -5
14 -11 0 -6 7 -9 15 -5 8 3 15 2 15 -3 0 -5 9 -11 20 -14 11 -3 23 -6 25 -6 3
-1 33 -15 67 -31 35 -17 68 -30 74 -30 6 0 18 -8 25 -17 10 -11 10 -14 2 -9
-7 4 -13 2 -13 -3 0 -6 -9 -11 -19 -11 -11 0 -26 -6 -33 -13 -7 -8 -19 -12
-26 -9 -6 2 -12 -1 -12 -8 0 -6 -5 -8 -10 -5 -5 3 -10 2 -10 -2 0 -5 -10 -9
-22 -10 -11 -1 -24 -6 -27 -12 -4 -5 -19 -13 -34 -16 -15 -4 -27 -11 -27 -16
0 -5 -7 -6 -15 -3 -8 4 -15 1 -15 -5 0 -6 -3 -10 -7 -9 -5 1 -30 -8 -57 -20
-26 -12 -52 -19 -57 -16 -5 3 -12 -2 -15 -10 -3 -9 -15 -16 -25 -16 -10 0 -19
-5 -19 -10 0 -6 -3 -9 -8 -8 -4 2 -32 -8 -62 -22 -30 -13 -58 -23 -62 -22 -5
1 -8 -3 -8 -9 0 -5 -4 -8 -9 -5 -4 3 -15 -2 -24 -12 -17 -19 -68 -127 -86
-184 -7 -21 -16 -38 -20 -38 -4 0 -12 -21 -18 -48 -6 -26 -19 -67 -28 -92 -9
-25 -17 -53 -18 -62 -1 -10 -4 -18 -7 -18 -4 0 -7 -6 -8 -12 -4 -35 -11 -70
-21 -100 -12 -40 -20 -86 -27 -158 -3 -30 -10 -60 -15 -67 -6 -7 -6 -13 0 -17
10 -6 9 -31 -1 -42 -4 -3 -3 -17 2 -30 7 -17 6 -24 -3 -24 -8 0 -8 -3 -2 -8 6
-4 11 -20 12 -37 2 -16 4 -49 5 -72 2 -24 7 -43 12 -43 4 0 6 -7 2 -15 -3 -8
-1 -15 5 -15 6 0 8 -4 4 -10 -3 -5 -2 -17 3 -27 6 -10 16 -31 23 -48 7 -16 22
-40 32 -52 l19 -21 -536 -536 c-506 -506 -536 -538 -536 -571 0 -25 8 -44 25
-60 l24 -25 3403 0 3403 0 23 33 c28 42 21 90 -16 115 -24 16 -249 17 -3293
17 -1797 0 -3270 3 -3273 6 -3 3 20 31 53 62 32 31 56 59 53 62 -3 3 -1 5 5 5
5 0 22 11 37 25 15 14 24 25 21 25 -3 0 19 21 49 48 30 26 57 55 61 65 4 9 11
15 16 12 5 -4 9 2 9 11 0 10 3 15 6 12 3 -3 32 23 65 58 32 35 59 61 59 58 0
-3 11 7 25 22 14 15 25 31 25 35 0 5 6 8 13 7 6 -2 11 3 9 9 -1 7 2 13 7 13 9
0 61 46 58 51 -1 2 22 27 50 55 29 28 53 49 53 47 0 -2 11 8 25 23 14 15 25
31 25 36 0 5 3 7 8 5 9 -5 42 30 35 37 -4 3 1 6 11 6 9 0 14 5 11 10 -3 6 -2
10 4 10 5 0 29 21 53 46 23 25 44 41 46 35 2 -6 12 -11 22 -11 9 0 23 -6 29
-14 7 -8 26 -18 42 -21 16 -4 29 -11 29 -16 0 -6 4 -8 9 -5 5 4 22 1 36 -4 35
-13 94 -22 165 -24 30 -1 60 -5 67 -9 6 -4 14 -3 17 1 3 5 28 10 57 11 28 1
56 4 61 7 6 4 31 8 57 10 58 5 74 8 86 16 14 8 97 22 114 19 7 -1 10 2 6 8 -3
6 3 12 14 12 39 3 181 50 181 61 0 4 7 5 15 2 8 -4 15 -2 15 3 0 5 6 10 14 10
7 0 36 10 62 23 27 13 55 23 62 23 6 0 12 4 12 9 0 4 8 8 17 8 9 0 25 8 36 18
11 9 17 11 13 5 -5 -9 -2 -11 8 -7 9 3 16 9 16 13 0 4 26 18 58 31 31 13 60
28 63 33 3 5 9 8 13 8 7 -1 79 32 86 39 11 11 85 45 93 42 5 -1 6 2 2 8 -3 5
0 10 7 10 7 0 30 11 49 25 20 13 39 21 43 18 3 -4 6 -2 6 4 0 9 35 30 54 31 5
0 12 4 15 10 3 5 28 22 54 38 27 16 61 37 75 47 15 9 35 20 45 23 9 4 17 9 17
13 0 3 20 17 45 31 25 14 45 28 45 32 0 5 7 8 15 8 8 0 15 5 15 10 0 6 5 10
10 10 6 0 35 18 65 40 30 22 58 40 64 40 5 0 11 7 15 15 3 8 11 15 18 15 11 0
29 13 85 60 7 5 16 10 20 10 5 0 20 11 35 25 15 14 30 25 33 25 3 0 20 13 38
30 18 16 35 30 39 30 4 0 13 6 20 13 7 6 31 25 53 42 22 16 47 35 55 42 57 46
94 73 102 73 5 0 6 5 3 10 -3 6 -1 10 5 10 6 0 17 6 24 12 7 7 30 27 51 43 21
17 44 36 51 42 7 7 15 13 18 13 5 0 20 13 95 84 23 21 41 36 41 32 0 -3 27 20
59 51 53 51 59 60 55 91 -4 34 -24 62 -42 62 -6 0 -12 5 -14 10 -2 6 -13 12
-26 15 -53 10 -55 26 -4 45 20 7 64 25 97 40 152 69 174 78 179 72 3 -3 6 0 6
6 0 6 16 14 35 18 19 3 35 10 35 15 0 5 5 9 10 9 6 0 27 7 48 17 20 9 39 17
42 18 43 13 90 46 148 104 39 39 77 71 83 71 7 0 10 2 7 5 -7 7 94 111 104
108 4 -2 8 3 8 11 0 8 9 18 20 21 11 4 18 10 16 14 -3 4 19 30 47 57 29 28 53
54 55 57 1 4 32 36 67 71 36 36 65 70 65 75 0 6 7 11 15 11 8 0 14 3 13 8 -2
4 12 22 30 40 17 18 32 37 32 43 0 6 5 7 10 4 6 -3 10 -2 10 3 0 5 14 23 30
41 17 17 27 31 23 31 -5 0 6 9 22 20 17 11 26 20 22 20 -5 0 -2 6 5 14 11 12
56 62 123 141 11 13 34 40 50 61 17 20 40 47 53 60 12 13 22 26 22 29 0 13 38
54 44 48 3 -3 6 1 6 11 0 9 7 19 15 22 8 4 15 12 15 18 0 7 10 22 23 34 28 26
47 49 47 57 0 7 14 24 48 60 12 13 22 29 22 35 0 6 7 13 15 16 8 4 15 12 15
20 0 8 3 14 8 14 4 0 13 14 20 30 8 17 18 28 23 24 5 -3 9 1 9 9 0 8 9 22 20
32 11 10 17 22 14 26 -3 5 1 12 9 15 7 2 31 32 52 64 21 33 42 60 47 60 4 0 8
5 8 12 0 6 18 35 40 64 22 29 40 56 40 60 0 4 12 23 27 43 16 20 27 39 25 44
-1 4 3 7 9 7 5 0 8 4 5 9 -3 5 1 11 9 15 8 3 15 12 15 21 0 8 4 15 9 15 5 0
11 8 15 18 6 18 27 54 37 62 4 3 9 15 13 28 4 12 12 22 17 22 5 0 9 5 9 11 0
5 11 26 25 46 13 20 22 40 19 45 -3 4 -1 8 5 8 5 0 22 25 37 55 16 30 32 55
37 55 4 0 6 4 2 9 -3 5 -1 12 4 15 10 6 72 132 70 142 0 4 3 10 8 13 5 3 28
47 52 96 24 50 51 107 62 128 10 20 16 37 14 37 -3 0 3 17 14 39 11 21 17 41
14 45 -4 3 -1 6 5 6 7 0 11 3 11 8 -1 4 0 10 1 15 1 4 3 10 5 15 1 4 5 14 8
22 10 23 58 172 62 193 2 10 7 27 10 37 7 22 14 54 22 95 2 17 8 35 12 40 3 6
6 36 6 67 0 32 3 58 6 58 4 0 6 54 5 120 0 66 -3 120 -6 120 -3 0 -6 8 -7 18
0 9 -4 28 -7 42 -3 14 -8 37 -12 53 -3 15 -10 27 -15 27 -6 0 -8 4 -4 9 3 5 1
12 -5 16 -5 3 -10 15 -10 26 0 10 -4 19 -10 19 -5 0 -10 7 -10 15 0 8 -5 15
-12 15 -6 0 -9 3 -5 6 3 3 -10 21 -29 40 -19 19 -34 38 -34 42 0 4 -20 18 -45
32 -25 14 -45 28 -45 31 0 6 -30 17 -46 17 -3 0 -16 8 -29 16 -14 9 -37 18
-52 20 -16 2 -36 7 -46 11 -9 4 -28 5 -42 3 -13 -3 -22 -1 -19 3 3 5 -54 8
-126 7 -72 -1 -133 -5 -135 -8z m233 -164 c7 -4 12 -2 12 5 0 9 3 9 14 0 8 -6
18 -11 22 -10 5 1 11 0 14 -1 3 -1 19 -4 35 -6 17 -3 32 -9 33 -15 2 -5 10 -9
17 -9 8 0 17 -4 20 -10 3 -5 -1224 -1239 -2726 -2741 -1958 -1958 -2734 -2728
-2739 -2718 -5 8 -8 18 -8 23 0 5 -5 12 -11 15 -6 4 -11 21 -13 39 -1 18 -6
32 -11 32 -4 0 -7 8 -5 18 1 9 -1 23 -5 30 -5 7 -3 12 3 12 6 0 8 5 3 13 -11
18 -10 131 2 139 6 5 5 8 -3 8 -8 0 -10 5 -5 12 4 7 8 20 8 28 3 43 18 119 23
116 4 -2 7 10 8 27 1 18 4 41 7 52 3 11 10 35 16 53 5 18 11 36 12 40 5 20 12
39 20 57 5 11 11 29 13 40 1 11 11 38 20 60 9 22 29 69 43 104 25 59 30 65 82
88 88 38 124 55 153 70 16 8 28 11 28 8 0 -4 7 1 16 9 8 9 23 16 32 16 9 0 26
7 36 15 10 8 23 12 27 9 5 -3 9 0 9 5 0 6 3 10 8 9 4 -1 33 10 65 25 32 15 62
27 67 27 6 0 10 4 10 10 0 5 3 9 8 8 12 -4 102 34 102 43 0 5 7 6 15 3 8 -4
15 -1 15 7 0 7 3 10 6 6 4 -3 21 1 38 10 17 10 33 18 36 18 20 3 52 30 63 53
14 29 12 72 -4 72 -6 0 -8 4 -5 9 6 9 -84 56 -129 67 -14 3 -25 10 -25 15 0 5
-7 9 -15 9 -15 0 -24 3 -82 34 -18 9 -34 17 -35 17 -16 -1 -48 14 -48 21 0 6
-7 8 -15 4 -8 -3 -15 -1 -15 4 0 4 -14 11 -30 15 -26 6 -30 10 -24 28 4 12 11
24 15 25 5 2 9 10 9 18 0 8 6 17 13 20 8 3 14 10 14 17 0 7 25 49 57 94 31 44
56 86 56 92 0 6 4 11 9 11 5 0 20 17 32 38 13 20 29 43 36 50 8 8 20 27 28 43
9 16 20 29 26 29 6 0 8 4 5 9 -3 5 1 11 9 15 8 3 15 12 15 20 0 8 4 16 8 18 5
2 33 37 63 78 66 92 78 107 107 137 12 13 22 26 22 28 0 5 35 48 62 77 10 10
18 20 18 23 0 6 14 24 52 66 15 16 24 29 21 29 -4 0 2 9 13 19 10 11 33 36 49
56 17 19 39 46 50 59 92 107 115 134 147 167 20 22 34 39 30 39 -3 0 10 14 28
30 18 17 31 30 28 30 -4 0 15 22 40 48 66 68 225 241 234 255 4 7 8 8 8 2 1
-5 5 0 10 13 5 12 16 22 25 22 8 0 15 4 15 10 0 5 77 86 170 179 94 94 170
169 170 167 0 -2 31 27 68 63 38 36 101 95 141 131 41 36 88 79 106 95 40 36
105 94 133 117 11 9 23 14 26 11 3 -4 6 -1 6 5 0 13 14 28 59 62 18 14 46 38
62 53 16 16 29 26 29 23 0 -3 8 2 18 12 41 39 77 67 85 64 4 -1 7 5 7 13 0 8
4 15 10 15 9 0 98 64 110 79 3 3 23 19 45 36 22 16 45 34 51 40 33 29 54 44
54 37 1 -4 10 4 20 17 11 13 20 20 20 15 0 -4 7 1 15 12 8 10 15 15 15 11 0
-4 11 2 25 15 38 36 55 49 55 43 0 -3 8 2 18 11 9 8 45 35 79 59 53 38 62 41
69 27 4 -9 6 -20 6 -24 -1 -5 3 -8 8 -8 6 0 10 -6 10 -13 0 -8 13 -40 28 -73
16 -32 35 -73 43 -91 7 -18 25 -38 39 -45 14 -7 28 -17 32 -23 5 -7 8 -6 8 0
0 6 9 11 21 12 23 2 71 52 63 65 -3 4 0 8 5 8 6 0 11 9 11 20 0 11 4 20 8 20
5 0 9 7 10 15 1 8 3 22 4 30 1 8 5 15 10 15 4 0 8 7 8 15 0 8 5 15 12 15 6 0
8 3 5 7 -4 3 0 17 8 30 9 13 13 23 10 23 -3 0 2 15 12 33 9 17 18 34 18 37 3
12 27 68 46 107 11 23 19 44 18 45 -2 2 12 30 29 63 27 50 40 63 77 80 25 11
45 23 45 27 0 5 6 8 14 8 7 0 25 9 40 21 14 11 30 17 36 14 5 -3 10 -1 10 4 0
6 7 11 16 11 8 0 13 4 10 8 -2 4 15 14 40 21 24 7 44 16 44 20 0 3 27 17 60
30 33 13 60 28 60 33 0 5 4 7 9 3 5 -3 12 -1 16 5 4 6 11 8 16 5 5 -4 9 -1 9
4 0 6 7 11 16 11 14 0 65 21 137 55 15 8 24 9 21 3 -4 -5 5 -2 20 7 14 10 26
14 26 10 0 -4 6 -2 13 4 8 6 17 8 20 4 4 -3 7 -1 7 5 0 6 9 9 20 7 11 -2 20 0
20 5 0 10 143 45 178 44 12 -1 22 2 22 7 0 4 8 8 18 8 27 0 115 11 118 14 7 6
150 0 162 -7z m316 -201 c4 -14 7 -28 7 -32 0 -5 4 -12 9 -18 19 -23 29 -196
17 -295 -11 -94 -20 -140 -26 -145 -4 -2 -7 -18 -6 -35 1 -16 -2 -30 -7 -30
-4 0 -8 -9 -8 -19 0 -11 -5 -32 -12 -48 -6 -15 -10 -32 -10 -36 1 -4 -4 -20
-13 -36 -8 -16 -11 -31 -8 -35 4 -3 2 -6 -4 -6 -5 0 -10 -7 -11 -15 -1 -8 -3
-22 -4 -30 -1 -8 -5 -15 -10 -15 -5 0 -7 -4 -3 -9 3 -5 1 -12 -5 -16 -5 -3
-10 -15 -10 -26 0 -10 -5 -19 -11 -19 -5 0 -8 -3 -6 -8 3 -4 -3 -25 -14 -46
-10 -22 -19 -46 -19 -53 0 -7 -5 -13 -11 -13 -5 0 -8 -4 -4 -9 3 -5 0 -15 -7
-23 -7 -7 -15 -22 -16 -33 -2 -11 -8 -23 -14 -26 -5 -3 -10 -16 -11 -27 -1
-12 -4 -22 -7 -22 -4 0 -17 -24 -31 -52 -13 -29 -27 -55 -32 -56 -4 -2 -5 -8
-1 -13 3 -5 0 -9 -5 -9 -6 0 -11 -5 -11 -11 0 -6 -9 -23 -20 -39 -11 -15 -17
-30 -13 -34 3 -3 1 -6 -5 -6 -7 0 -11 -3 -10 -7 3 -10 -53 -107 -64 -111 -5
-2 -6 -7 -3 -12 3 -4 -2 -13 -10 -20 -8 -7 -15 -19 -15 -26 0 -8 -4 -14 -10
-14 -5 0 -10 -7 -10 -15 0 -8 -4 -15 -10 -15 -5 0 -9 -3 -8 -7 1 -5 -11 -28
-26 -53 -64 -100 -79 -125 -77 -128 1 -2 -7 -12 -18 -21 -11 -10 -18 -21 -14
-25 3 -3 1 -6 -5 -6 -7 0 -12 -6 -12 -14 0 -8 -7 -17 -16 -20 -8 -3 -12 -10
-9 -16 3 -6 -1 -13 -9 -16 -9 -3 -16 -12 -16 -19 0 -6 -11 -24 -25 -39 -13
-14 -22 -26 -19 -26 6 0 -77 -113 -91 -122 -5 -4 -6 -8 -2 -8 8 0 3 -7 -38
-54 -14 -16 -25 -35 -25 -43 0 -8 -4 -11 -10 -8 -5 3 -12 -6 -16 -20 -3 -14
-9 -23 -12 -20 -3 3 -16 -13 -29 -35 -13 -22 -28 -40 -34 -40 -5 0 -9 -4 -9
-10 0 -10 -26 -44 -62 -82 -10 -10 -15 -18 -10 -18 4 0 -1 -5 -10 -11 -10 -5
-18 -14 -18 -20 0 -5 -10 -20 -22 -33 -39 -39 -68 -76 -68 -84 0 -5 -12 -20
-27 -34 -31 -28 -73 -76 -73 -83 0 -2 -12 -18 -27 -34 -61 -65 -83 -92 -83
-102 0 -5 -4 -7 -10 -4 -5 3 -10 2 -10 -4 0 -6 -10 -21 -22 -34 -13 -13 -54
-59 -93 -102 -38 -43 -95 -105 -126 -137 -30 -32 -53 -58 -51 -58 3 0 -17 -21
-44 -48 -27 -26 -62 -63 -79 -82 -16 -19 -33 -36 -37 -38 -5 -1 -8 -4 -9 -7
-1 -10 -58 -65 -68 -65 -6 0 -11 -3 -11 -7 0 -14 -47 -63 -54 -56 -3 3 -6 -1
-6 -10 0 -9 -7 -17 -16 -17 -8 0 -12 -4 -9 -10 3 -5 -1 -10 -9 -10 -9 0 -16
-5 -16 -11 0 -14 -57 -68 -64 -61 -3 3 -8 -2 -12 -11 -3 -9 -19 -19 -35 -22
-16 -4 -29 -10 -29 -14 0 -4 -6 -8 -12 -8 -13 0 -114 -43 -158 -68 -14 -7 -28
-14 -32 -14 -14 -3 -103 -41 -131 -57 -15 -8 -32 -12 -37 -9 -6 3 -10 1 -10
-4 0 -6 -7 -11 -15 -11 -8 0 -15 -5 -15 -12 0 -6 -3 -8 -6 -5 -4 3 -16 1 -28
-5 -11 -7 -24 -11 -28 -10 -5 1 -8 -3 -8 -10 0 -6 -3 -9 -6 -5 -4 3 -21 -1
-38 -10 -17 -10 -34 -18 -38 -19 -5 -1 -11 -3 -15 -4 -5 -1 -11 -2 -15 -1 -5
0 -8 -3 -8 -7 0 -4 -17 -14 -37 -21 -64 -23 -85 -70 -59 -131 8 -19 65 -52 77
-44 5 3 9 1 9 -4 0 -9 39 -24 50 -19 3 1 13 -5 21 -13 12 -10 13 -17 5 -26 -6
-7 -14 -10 -18 -8 -4 2 -10 -5 -13 -17 -4 -11 -9 -18 -12 -16 -2 3 -13 -2 -22
-11 -10 -10 -37 -33 -60 -52 -24 -19 -57 -47 -75 -62 -17 -15 -34 -28 -38 -28
-3 0 -23 -16 -42 -35 -20 -19 -41 -35 -46 -35 -5 0 -16 -10 -24 -22 -9 -12
-16 -18 -16 -13 0 6 -6 3 -13 -5 -7 -8 -28 -26 -47 -40 -41 -28 -55 -39 -79
-61 -10 -9 -32 -25 -50 -35 -17 -10 -31 -22 -31 -26 0 -4 -4 -8 -10 -8 -11 0
-102 -67 -112 -84 -4 -6 -8 -7 -8 -3 0 5 -18 -5 -39 -22 -21 -17 -42 -31 -46
-31 -3 0 -12 -6 -20 -12 -22 -22 -50 -43 -55 -44 -8 -1 -123 -77 -138 -92 -8
-7 -18 -10 -23 -7 -5 4 -9 1 -9 -5 0 -6 -12 -16 -27 -23 -16 -6 -34 -17 -41
-24 -8 -7 -18 -10 -24 -7 -6 4 -8 3 -5 -3 3 -5 -16 -20 -43 -34 -27 -13 -50
-27 -50 -31 0 -5 -5 -8 -11 -8 -6 0 -24 -9 -40 -21 -16 -11 -29 -17 -29 -12 0
4 -4 3 -8 -3 -10 -16 -139 -84 -146 -77 -3 4 -6 1 -6 -5 0 -7 -17 -19 -37 -28
-21 -10 -40 -18 -43 -19 -3 -2 -15 -6 -27 -10 -13 -4 -23 -11 -23 -16 0 -5 -4
-9 -9 -9 -5 0 -35 -12 -67 -27 -33 -14 -62 -26 -66 -25 -5 1 -8 -3 -8 -9 0 -5
-4 -8 -9 -4 -5 3 -12 1 -16 -5 -3 -5 -15 -10 -26 -10 -10 0 -19 -5 -19 -11 0
-6 -7 -9 -15 -5 -8 3 -15 1 -15 -5 0 -6 -4 -7 -10 -4 -5 3 -10 1 -10 -5 0 -6
-4 -8 -10 -5 -5 3 -10 2 -10 -4 0 -5 -9 -8 -20 -6 -11 2 -20 -1 -20 -6 0 -6
-4 -8 -9 -4 -5 3 -12 1 -16 -5 -3 -5 -14 -10 -23 -10 -9 0 -29 -6 -43 -14 -14
-7 -43 -17 -65 -21 -44 -9 -43 -9 -64 -18 -8 -4 -27 -8 -42 -11 -15 -3 -32 -7
-38 -11 -5 -3 -10 0 -11 7 0 10 -2 10 -6 1 -2 -7 -16 -13 -29 -13 -13 0 -24
-5 -24 -11 0 -8 -5 -7 -16 2 -10 8 -18 9 -22 2 -4 -6 -20 -10 -37 -9 -16 1
-47 -1 -67 -5 -21 -3 -38 -3 -38 2 0 5 -11 4 -25 -1 -18 -7 -25 -6 -25 3 0 8
-3 8 -9 -2 -5 -7 -11 -9 -14 -4 -4 6 -22 9 -42 8 -19 -1 -35 2 -35 7 0 4 -11
8 -24 8 -14 0 -28 5 -31 10 -3 6 -15 10 -25 10 -22 0 -39 22 -22 28 7 2 10 7
7 12 -3 5 4 11 15 15 11 3 20 14 20 22 0 9 3 14 6 10 7 -6 54 41 54 54 0 5 6
8 13 7 6 -2 11 3 9 10 -1 6 2 12 7 12 4 0 20 11 35 25 15 14 25 25 22 25 -3 0
5 10 17 23 12 13 24 22 26 20 2 -1 17 14 32 34 16 20 29 33 29 29 0 -4 11 5
25 20 14 15 25 32 25 37 0 6 3 8 6 5 7 -8 42 25 37 35 -2 4 3 7 12 7 9 0 14 4
10 9 -3 5 3 12 12 16 10 4 39 31 66 61 26 30 47 52 47 49 0 -3 11 6 25 21 14
15 25 31 25 36 0 5 5 6 10 3 6 -3 10 2 10 11 0 10 3 15 6 11 7 -7 54 41 54 56
0 6 3 8 6 4 3 -3 28 19 55 49 27 30 49 52 49 49 0 -4 11 6 25 21 14 15 25 31
25 35 0 5 6 8 13 7 6 -2 11 3 9 9 -1 7 2 13 7 13 4 0 20 11 35 25 15 14 25 25
22 25 -2 0 10 15 27 33 18 18 34 32 35 31 7 -4 39 31 35 39 -2 4 0 7 5 7 5 0
21 11 36 25 15 14 24 25 21 25 -3 0 19 21 49 48 30 26 57 55 61 65 4 9 11 15
16 12 5 -4 9 2 9 11 0 10 3 14 7 11 3 -4 15 5 25 20 10 16 18 24 18 20 0 -4
11 4 25 19 14 15 25 32 25 37 0 6 3 8 6 4 3 -3 28 19 55 49 27 30 49 52 49 49
0 -4 11 6 25 21 14 15 25 31 25 35 0 5 6 8 13 6 6 -1 11 4 10 11 -2 6 1 12 6
12 4 0 20 11 35 25 15 14 25 25 21 25 -3 0 19 22 49 49 30 27 52 52 49 55 -4
3 -2 6 4 6 5 0 22 11 37 25 15 14 24 25 21 25 -3 0 19 21 49 48 30 26 57 55
61 65 4 9 11 15 16 12 5 -4 9 2 9 11 0 10 2 15 6 12 5 -6 61 43 59 52 0 3 14
19 32 37 18 17 33 29 33 27 0 -3 11 7 25 22 14 15 25 31 25 35 0 5 6 8 13 6 6
-1 11 4 10 11 -2 6 1 12 6 12 4 0 20 11 35 25 15 14 25 25 23 25 -2 0 19 24
47 53 28 28 53 51 55 50 6 -3 51 50 51 60 0 6 3 8 6 5 7 -8 42 25 37 35 -2 4
3 7 12 7 9 0 14 4 10 9 -3 5 3 12 13 15 10 4 25 18 32 31 7 14 15 23 18 20 3
-2 18 12 33 32 16 20 29 33 29 29 0 -4 11 5 25 20 14 15 25 32 25 37 0 6 3 8
6 4 3 -3 28 19 55 49 27 30 49 52 49 49 0 -4 11 6 25 21 14 15 25 31 25 35 0
5 6 8 13 6 6 -1 11 4 10 11 -2 6 1 12 6 12 4 0 20 11 35 25 15 14 25 25 23 25
-2 0 19 24 47 53 28 28 53 51 55 50 6 -3 51 50 51 60 0 6 3 8 6 5 7 -8 42 25
37 35 -2 4 3 7 12 7 9 0 14 4 10 9 -3 5 3 12 12 16 10 4 39 31 66 61 26 30 47
52 47 49 0 -3 11 6 25 21 14 15 25 31 25 36 0 5 5 6 10 3 6 -3 10 2 10 11 0
10 3 15 6 11 7 -6 54 41 54 54 0 5 6 8 13 7 6 -2 11 3 9 10 -1 6 2 12 7 12 4
0 20 11 35 25 15 14 24 25 21 25 -3 0 19 21 49 48 30 26 57 55 61 65 4 9 11
15 16 12 5 -4 9 2 9 11 0 10 3 15 6 11 7 -7 42 26 37 36 -2 4 0 7 5 7 10 0 62
46 59 51 -1 2 22 27 51 55 28 28 52 49 52 47 0 -2 11 8 25 23 14 15 25 31 25
35 0 5 6 8 13 7 6 -2 11 3 9 10 -1 6 2 12 7 12 4 0 20 11 35 25 15 14 25 25
22 25 -3 0 23 27 58 59 35 33 61 62 58 65 -3 3 2 6 12 6 9 0 15 4 11 9 -3 5 3
12 12 16 10 4 39 31 66 61 26 30 47 52 47 49 0 -3 11 6 25 21 14 15 25 32 25
37 0 6 3 8 6 4 3 -3 28 19 55 49 27 30 49 52 49 49 0 -4 11 6 25 21 14 15 25
31 25 35 0 5 6 8 13 7 6 -2 11 3 9 10 -1 6 2 12 7 12 4 0 20 11 35 25 15 14
25 25 21 25 -3 0 19 22 49 49 30 27 52 52 49 55 -4 3 -2 6 4 6 10 0 63 45 60
51 -1 2 22 27 51 55 28 28 52 49 52 47 0 -2 11 8 25 23 14 15 25 31 25 35 0 5
6 8 13 6 6 -1 11 4 10 11 -2 6 1 12 6 12 4 0 20 11 35 25 15 14 25 25 21 25
-3 0 19 22 49 49 30 27 52 52 49 55 -4 3 -2 6 4 6 5 0 22 11 37 25 15 14 24
25 21 25 -3 0 19 21 49 48 30 26 57 55 61 65 4 9 11 15 16 12 5 -4 9 2 9 11 0
10 3 15 6 12 7 -8 42 25 37 35 -2 4 0 7 5 7 14 0 62 47 55 54 -4 3 1 6 11 6 9
0 14 5 11 10 -3 6 -2 10 3 10 5 0 21 11 36 25 15 14 25 25 22 25 -2 0 10 15
27 33 18 18 34 31 36 30 5 -3 51 49 51 59 0 5 5 6 10 3 6 -3 10 1 10 9 0 9 5
16 11 16 14 0 40 26 33 33 -3 3 4 8 15 12 12 3 21 11 21 16 0 20 28 7 34 -16z"/>
</g>
</svg>
